<?xml version="1.0" encoding="utf-8"?>
<!-- Generator: Adobe Illustrator 25.4.1, SVG Export Plug-In . SVG Version: 6.00 Build 0)  -->
<svg version="1.1" xmlns="http://www.w3.org/2000/svg" xmlns:xlink="http://www.w3.org/1999/xlink" x="0px" y="0px"
	 viewBox="0 0 300 300" style="enable-background:new 0 0 300 300;" xml:space="preserve">
<style type="text/css">
	.st0{fill:#ED1C24;}
	.st1{fill:#00A79D;}
	.st2{fill:#ED1C24;stroke:#FFFFFF;stroke-width:5;stroke-miterlimit:10;}
	.st3{fill:#D7D2C4;}
	.st4{fill:#017E77;}
	.st5{fill:#ED1C24;stroke:#FFFFFF;stroke-width:3;stroke-miterlimit:10;}
	.st6{fill:#D7CCAC;}
	.st7{fill:#F7E08E;}
	.st8{fill:#1B459C;stroke:#FFFFFF;stroke-width:3;stroke-miterlimit:10;}
	.st9{fill:#ED1C24;stroke:#FFFFFF;stroke-width:3.5204;stroke-miterlimit:10;}
	.st10{fill:#ED1C24;stroke:#FFFFFF;stroke-width:4;stroke-miterlimit:10;}
	.st11{fill:#0B1F41;}
	.st12{fill:#232C65;}
	.st13{fill:#00B5E1;}
	.st14{fill:#63676B;}
	.st15{fill:#1B459C;}
	.st16{fill:#872634;}
	.st17{fill:#BBBCBC;}
	.st18{fill:#63A844;}
	.st19{fill:#D51F35;}
	.st20{fill:#1B459C;stroke:#D7D2C4;stroke-width:5.6036;stroke-miterlimit:10;}
	.st21{fill:#1B459C;stroke:#FFFFFF;stroke-width:5.6036;stroke-miterlimit:10;}
	.st22{fill:#ED2124;}
	.st23{fill:#1B459C;stroke:#D7D2C4;stroke-width:16.8109;stroke-miterlimit:10;}
	.st24{fill:#1B459C;stroke:#FFFFFF;stroke-width:4.9294;stroke-miterlimit:10;}
	.st25{fill:#FFFFFF;}
	.st26{fill:#1B459C;stroke:#FFFFFF;stroke-width:8.4354;stroke-miterlimit:10;}
	.st27{fill:#1B459C;stroke:#FFFFFF;stroke-width:16.8109;stroke-miterlimit:10;}
</style>
<g id="Layer_1">
</g>
<g id="Layer_2">
	<g>
		<rect y="0" class="st25" width="300" height="300"/>
		<path class="st19" d="M163.1,134.02c-71-40.99-135.45-62.3-143.94-47.58l26.11,15.08c6.21-10.76,57.12,7,113.7,39.66
			c56.58,32.67,97.41,67.87,91.2,78.63l26.11,15.08C284.77,220.17,234.1,175.01,163.1,134.02z"/>
		<g>
			<path class="st26" d="M158.32,295.56c-2.34,2.86-6.95,2.03-8.13-1.48l-11.7-34.58l-19.73,12.38c-3.24,2.03-7.34,2.11-10.65,0.2
				l-18.53-10.7l-18.53-10.7c-3.31-1.91-5.3-5.5-5.16-9.32l0.85-23.28l-35.8,7.15c-3.63,0.72-6.65-2.84-5.34-6.31
				c26.99-71.55,61.8-66.28,61.8-66.28C135.56,45.39,205.66,14.11,229.54,7.57c4.31-1.18,8.71,1.36,9.84,5.68
				c6.27,23.95,14.23,100.3-54.56,195.64C184.82,208.89,206.79,236.4,158.32,295.56z M196.96,75.37
				c-8.43-4.87-19.22-1.98-24.09,6.45c-4.87,8.43-1.98,19.22,6.45,24.09s19.22,1.98,24.09-6.45
				C208.28,91.02,205.39,80.24,196.96,75.37z M169.88,122.28c-8.43-4.87-19.22-1.98-24.09,6.45c-4.87,8.43-1.98,19.22,6.45,24.09
				c8.43,4.87,19.22,1.98,24.09-6.45C181.2,137.93,178.31,127.15,169.88,122.28z"/>
			<path class="st19" d="M132.34,187.3c71,40.99,135.45,62.3,143.94,47.58l-26.11-15.08c-6.21,10.76-57.12-7-113.7-39.66
				c-56.58-32.67-97.41-67.87-91.2-78.63L19.16,86.43C10.66,101.15,61.33,146.3,132.34,187.3z"/>
			<circle class="st25" cx="188.14" cy="90.64" r="17.63"/>
			<circle class="st15" cx="161.06" cy="137.55" r="25.19"/>
		</g>
	</g>
</g>
</svg>
